<svg width="28" height="28" viewBox="0 0 28 28" fill="none" xmlns="http://www.w3.org/2000/svg">
<path d="M8.77506 17.0041L9 17H20C23.2384 17 25.8776 19.5656 25.9959 22.7751L26 23V23.5C26 23.7761 25.7761 24 25.5 24H24.5C24.2239 24 24 23.7761 24 23.5V23C24 20.8578 22.316 19.1089 20.1996 19.0049L20 19H9C6.8578 19 5.10892 20.684 5.0049 22.8004L5 23V23.5C5 23.7761 4.77614 24 4.5 24H3.5C3.22386 24 3 23.7761 3 23.5V23C3 19.7616 5.56557 17.1224 8.77506 17.0041Z" fill="#242933"/>
<path d="M16.002 5C18.7634 5 21.002 7.23858 21.002 10C21.002 12.7614 18.7634 15 16.002 15H13.002C10.2405 15 8.00195 12.7614 8.00195 10C8.00195 7.23858 10.2405 5 13.002 5H16.002ZM16.002 7H13.002C11.3451 7 10.002 8.34315 10.002 10C10.002 11.5977 11.2509 12.9037 12.8257 12.9949L13.002 13H16.002C17.6588 13 19.002 11.6569 19.002 10C19.002 8.40232 17.753 7.09634 16.1782 7.00509L16.002 7Z" fill="#242933"/>
</svg>
