<svg width="30" height="30" viewBox="0 0 30 30" fill="none" xmlns="http://www.w3.org/2000/svg">
<path d="M8.33366 17.667C9.22255 19.3813 11.8003 21.667 15.0003 21.667C18.2003 21.667 20.7781 19.3813 21.667 17.667M28.3337 15.0003C28.3337 22.3641 22.3641 28.3337 15.0003 28.3337C7.63653 28.3337 1.66699 22.3641 1.66699 15.0003C1.66699 7.63653 7.63653 1.66699 15.0003 1.66699C22.3641 1.66699 28.3337 7.63653 28.3337 15.0003Z" stroke="#172159" stroke-width="3" stroke-linecap="round"/>
<path d="M10.8337 9.66732C10.8337 9.57527 10.9083 9.50065 11.0003 9.50065C11.0924 9.50065 11.167 9.57527 11.167 9.66732C11.167 9.75937 11.0924 9.83398 11.0003 9.83398C10.9083 9.83398 10.8337 9.75937 10.8337 9.66732ZM18.8337 9.66732C18.8337 9.57527 18.9083 9.50065 19.0003 9.50065C19.0924 9.50065 19.167 9.57527 19.167 9.66732C19.167 9.75937 19.0924 9.83398 19.0003 9.83398C18.9083 9.83398 18.8337 9.75937 18.8337 9.66732Z" fill="#2D264B" stroke="#172159" stroke-width="3"/>
</svg>
