<svg width="24" height="25" viewBox="0 0 24 25" fill="none" xmlns="http://www.w3.org/2000/svg">
<g clip-path="url(#clip0_685_1985)">
<path d="M14.7808 19.7845L14.1906 19.3217L14.7808 19.7845ZM9.21921 19.7845L8.62903 20.2473L9.21921 19.7845ZM12 22.0895V21.3395V22.0895ZM19.25 9.69268C19.25 10.9192 18.6104 12.5604 17.6037 14.34C16.6137 16.0903 15.3342 17.8633 14.1906 19.3217L15.371 20.2473C16.5371 18.7602 17.8672 16.9209 18.9094 15.0785C19.9349 13.2654 20.75 11.3334 20.75 9.69268H19.25ZM9.80938 19.3217C8.66578 17.8633 7.38628 16.0903 6.39625 14.34C5.38962 12.5604 4.75 10.9192 4.75 9.69268H3.25C3.25 11.3334 4.06511 13.2654 5.09064 15.0785C6.13277 16.9209 7.46288 18.7602 8.62903 20.2473L9.80938 19.3217ZM4.75 9.69268C4.75 5.2997 8.04678 1.83398 12 1.83398V0.333984C7.11666 0.333984 3.25 4.57676 3.25 9.69268H4.75ZM12 1.83398C15.9532 1.83398 19.25 5.2997 19.25 9.69268H20.75C20.75 4.57676 16.8833 0.333984 12 0.333984V1.83398ZM14.1906 19.3217C13.5717 20.111 13.1641 20.6266 12.7992 20.9581C12.4664 21.2604 12.2442 21.3395 12 21.3395V22.8395C12.7291 22.8395 13.2948 22.5344 13.8078 22.0684C14.2886 21.6315 14.7849 20.9946 15.371 20.2473L14.1906 19.3217ZM8.62903 20.2473C9.21511 20.9946 9.71136 21.6315 10.1922 22.0684C10.7052 22.5344 11.2709 22.8395 12 22.8395V21.3395C11.7558 21.3395 11.5336 21.2604 11.2008 20.9581C10.8359 20.6266 10.4283 20.111 9.80938 19.3217L8.62903 20.2473ZM8.25 10.084C8.25 12.1551 9.92893 13.834 12 13.834V12.334C10.7574 12.334 9.75 11.3266 9.75 10.084H8.25ZM12 13.834C14.0711 13.834 15.75 12.1551 15.75 10.084H14.25C14.25 11.3266 13.2426 12.334 12 12.334V13.834ZM15.75 10.084C15.75 8.01292 14.0711 6.33398 12 6.33398V7.83398C13.2426 7.83398 14.25 8.84134 14.25 10.084H15.75ZM12 6.33398C9.92893 6.33398 8.25 8.01292 8.25 10.084H9.75C9.75 8.84134 10.7574 7.83398 12 7.83398V6.33398Z" fill="#2D264B"/>
</g>
<defs>
<clipPath id="clip0_685_1985">
<rect width="24" height="24.7328" fill="white" transform="translate(0 0.0839844)"/>
</clipPath>
</defs>
</svg>
