<svg width="120" height="32" viewBox="0 0 120 32" fill="none" xmlns="http://www.w3.org/2000/svg">
<path fill-rule="evenodd" clip-rule="evenodd" d="M106.869 26.0313H96.7536C91.067 26.0313 90.5612 21.4122 90.5612 20.0008C90.5612 18.5895 91.067 13.9704 96.7536 13.9704H106.869C112.556 13.9704 113.062 18.5895 113.062 20.0008C113.062 21.4122 112.556 26.0313 106.869 26.0313ZM106.869 8.89075H96.7536C86.2407 8.89075 85.3057 17.4007 85.3057 20.0008C85.3057 22.6011 86.2407 31.1111 96.7536 31.1111H106.869C117.382 31.1111 118.317 22.6011 118.317 20.0008C118.317 17.4007 117.382 8.89075 106.869 8.89075Z" fill="#242933"/>
<path fill-rule="evenodd" clip-rule="evenodd" d="M83.2762 9.41174H79.9976C78.5933 9.41174 78.304 9.64923 77.7622 10.4451C77.2207 11.2411 67.8425 25.422 67.8425 25.422C67.5435 25.858 67.2262 26.0344 66.8313 26.0344C66.4367 26.0344 66.1192 25.858 65.8202 25.422C65.8202 25.422 56.442 11.2411 55.9005 10.4451C55.3587 9.64923 55.0694 9.41174 53.6653 9.41174H50.3865C49.632 9.41174 49.2867 9.99611 49.7611 10.7097C50.2354 11.4232 60.9618 27.5551 60.9618 27.5551C62.6999 30.0874 63.9755 31.1111 66.8313 31.1111C69.6872 31.1111 70.963 30.0874 72.7013 27.5551C72.7013 27.5551 83.4273 11.4232 83.9016 10.7097C84.376 9.99611 84.0309 9.41174 83.2762 9.41174Z" fill="#242933"/>
<path fill-rule="evenodd" clip-rule="evenodd" d="M39.7295 10.7877C39.7295 9.80243 40.1237 9.41174 41.1185 9.41174H43.5967C44.5915 9.41174 44.9859 9.80243 44.9859 10.7877V29.7351C44.9859 30.7204 44.5915 31.1111 43.5967 31.1111H41.1185C40.1237 31.1111 39.7295 30.7204 39.7295 29.7351V10.7877Z" fill="#242933"/>
<path fill-rule="evenodd" clip-rule="evenodd" d="M34.3286 9.41174H31.05C29.6455 9.41174 29.3561 9.64923 28.8144 10.4451C28.2729 11.2411 18.8949 25.422 18.8949 25.422C18.5956 25.8578 18.2784 26.0344 17.8835 26.0344C17.4886 26.0344 17.1714 25.8578 16.8724 25.422C16.8724 25.422 7.49411 11.2411 6.95262 10.4451C6.41112 9.64923 6.12152 9.41174 4.7175 9.41174H1.43846C0.595908 9.41174 0.338631 9.99611 0.813224 10.7097C1.28759 11.4232 12.014 27.5551 12.014 27.5551C13.7518 30.0874 15.0276 31.1111 17.8835 31.1111C20.7396 31.1111 22.0152 30.0874 23.7535 27.5551C23.7535 27.5551 34.4796 11.4232 34.9538 10.7097C35.4284 9.99611 35.1711 9.41174 34.3286 9.41174Z" fill="#242933"/>
<path fill-rule="evenodd" clip-rule="evenodd" d="M39.5033 5.07195C38.6955 4.27212 38.6955 3.63794 39.5033 2.83788L41.2295 1.12815C42.037 0.32809 42.6775 0.32809 43.485 1.12792L45.2114 2.83788C46.0189 3.63794 46.0189 4.27212 45.2114 5.07195L43.485 6.78191C42.6775 7.58197 42.037 7.58197 41.2295 6.78191L39.5033 5.07195Z" fill="#242933"/>
</svg>
