<svg width="28" height="37" viewBox="0 0 28 37" fill="none" xmlns="http://www.w3.org/2000/svg">
<path d="M18.6663 9.25033C18.6663 11.9665 16.5307 14.0837 13.9997 14.0837V18.0837C18.8324 18.0837 22.6663 14.082 22.6663 9.25033H18.6663ZM13.9997 14.0837C11.4686 14.0837 9.33301 11.9665 9.33301 9.25033H5.33301C5.33301 14.082 9.16694 18.0837 13.9997 18.0837V14.0837ZM9.33301 9.25033C9.33301 6.53411 11.4686 4.41699 13.9997 4.41699V0.416992C9.16694 0.416992 5.33301 4.41865 5.33301 9.25033H9.33301ZM13.9997 4.41699C16.5307 4.41699 18.6663 6.53411 18.6663 9.25033H22.6663C22.6663 4.41865 18.8324 0.416992 13.9997 0.416992V4.41699ZM8.99967 23.2087H18.9997V19.2087H8.99967V23.2087ZM18.9997 32.8753H8.99967V36.8753H18.9997V32.8753ZM8.99967 32.8753C6.46861 32.8753 4.33301 30.7582 4.33301 28.042H0.333008C0.333008 32.8737 4.16694 36.8753 8.99967 36.8753V32.8753ZM23.6663 28.042C23.6663 30.7582 21.5307 32.8753 18.9997 32.8753V36.8753C23.8324 36.8753 27.6663 32.8737 27.6663 28.042H23.6663ZM18.9997 23.2087C21.5307 23.2087 23.6663 25.3258 23.6663 28.042H27.6663C27.6663 23.2103 23.8324 19.2087 18.9997 19.2087V23.2087ZM8.99967 19.2087C4.16694 19.2087 0.333008 23.2103 0.333008 28.042H4.33301C4.33301 25.3258 6.46861 23.2087 8.99967 23.2087V19.2087Z" fill="#ECEFFF"/>
</svg>
