<svg width="12" height="12" viewBox="0 0 12 12" fill="none" xmlns="http://www.w3.org/2000/svg">
<path d="M7.2 0C9.85097 0 12 2.26214 12 5.05263C12 6.99814 10.9554 8.68683 9.42439 9.53114L11.4544 11.5644C11.5504 11.6605 11.5541 11.8205 11.4628 11.9215C11.4175 11.9716 11.3546 12 11.2889 12H9.99235C9.83836 12 9.69027 11.9377 9.57873 11.8259L7.81923 10.0636C7.61651 10.0911 7.40983 10.1053 7.2 10.1053H4.8C2.14903 10.1053 0 7.84312 0 5.05263C0 2.26214 2.14903 0 4.8 0H7.2ZM7.2 1.26316H4.8C2.81177 1.26316 1.2 2.95976 1.2 5.05263C1.2 7.1455 2.81177 8.8421 4.8 8.8421H7.2C9.18823 8.8421 10.8 7.1455 10.8 5.05263C10.8 2.95976 9.18823 1.26316 7.2 1.26316Z" fill="#242933"/>
</svg>
