<svg width="20" height="22" viewBox="0 0 20 22" fill="none" xmlns="http://www.w3.org/2000/svg">
<path d="M17 11C17 13.8003 17 15.2004 16.455 16.27C15.9757 17.2108 15.2108 17.9757 14.27 18.455C13.2004 19 11.8003 19 9 19C6.19974 19 4.79961 19 3.73005 18.455C2.78924 17.9757 2.02433 17.2108 1.54497 16.27C1 15.2004 1 13.8003 1 11C1 8.19974 1 6.79961 1.54497 5.73005C2.02433 4.78924 2.78924 4.02433 3.73005 3.54497C4.79961 3 6.19974 3 9 3C11.8003 3 13.2004 3 14.27 3.54497C15.2108 4.02433 15.9757 4.78924 16.455 5.73005C17 6.79961 17 8.19974 17 11ZM17 11H19M9 7V10.5C9 11.3284 9.67158 12 10.5 12V12H12M5 1H13M5 21H13" stroke="#2D264B" stroke-width="1.5" stroke-linecap="round"/>
</svg>
